<?xml version="1.0" encoding="UTF-8" standalone="no"?>
<svg
   xmlns:dc="http://purl.org/dc/elements/1.1/"
   xmlns:cc="http://creativecommons.org/ns#"
   xmlns:rdf="http://www.w3.org/1999/02/22-rdf-syntax-ns#"
   xmlns:svg="http://www.w3.org/2000/svg"
   xmlns="http://www.w3.org/2000/svg"
   width="30"
   height="30"
   data-name="Layer 1"
   version="1.1"
   viewBox="0 0 30.000384 30.000242"
   id="svg22">
  <defs
     id="defs26" />
  <metadata
     id="metadata2">
    <rdf:RDF>
      <cc:Work
         rdf:about="">
        <dc:format>image/svg+xml</dc:format>
        <dc:type
           rdf:resource="http://purl.org/dc/dcmitype/StillImage" />
        <dc:title>PanelTypeIcons</dc:title>
      </cc:Work>
    </rdf:RDF>
  </metadata>
  <title
     id="title4">PanelTypeIcons</title>
  <path
     d="m 24.187509,2.7301752 h 3.16 a 1.84,1.84 0 0 1 1.84,1.8700006 V 21.870172 l -6.77,6.999998 H 2.9975088 a 1.84,1.84 0 0 1 -1.81,-1.869999 V 4.6001758 a 1.84,1.84 0 0 1 1.81,-1.8700006 h 3.19 m 3.61,0 h 3.6100002 m 3.62,0 h 3.61"
     id="path6"
     style="fill:none;stroke:#000000;stroke-width:1.25001597;stroke-linecap:round;stroke-linejoin:round;stroke-miterlimit:4;stroke-dasharray:none" />
  <path
     d="m 22.407509,28.87007 v -5.159999 a 1.84,1.84 0 0 1 1.78,-1.839999 h 5"
     id="path8"
     style="fill:none;stroke:#000000;stroke-width:1.25001597;stroke-linecap:round;stroke-linejoin:round;stroke-miterlimit:4;stroke-dasharray:none" />
  <path
     d="M 15.187509,5.0801758 V 0.8701746 m 7.23,4.2100012 V 0.8701746 M 7.9575088,5.0801758 V 0.8701746"
     id="path10"
     style="fill:none;stroke:#000000;stroke-width:1.00001287;stroke-linecap:round;stroke-linejoin:round;stroke-miterlimit:4;stroke-dasharray:none" />
  <path
     style="fill:none;stroke:#000000;stroke-linecap:round;stroke-linejoin:round"
     d="m 8.8678088,5.9801761 a 0.9,0.9 0 1 1 -0.9,-0.9000003 0.9,0.9 0 0 1 0.9,0.9000003 z"
     id="path12" />
  <path
     style="fill:none;stroke:#000000;stroke-linecap:round;stroke-linejoin:round"
     d="m 16.087509,5.9801761 a 0.9,0.9 0 1 1 -0.9,-0.9000003 0.9,0.9 0 0 1 0.9,0.9000003 z"
     id="path14" />
  <path
     style="fill:none;stroke:#000000;stroke-linecap:round;stroke-linejoin:round"
     d="m 23.307509,5.9801761 a 0.9,0.9 0 0 1 -1.8,0 0.9,0.9 0 0 1 1.8,0 z"
     id="path16" />
  <path
     d="m 14.737509,20.470073 h 2.71 v 4.669998 h -4.52 V 21.400072 M 7.0575088,20.470073 h 2.71 v 4.669998 h -4.52 V 21.400072 M 22.417509,12.520076 h 2.71 v 4.679998 h -4.52 v -3.739998 m -5.87,-0.94 h 2.71 v 4.679998 h -4.52 v -3.739998 m -5.8700002,-0.94 h 2.71 v 4.679998 h -4.52 v -3.739998"
     id="path18"
     style="fill:none;stroke:#000000;stroke-width:1.25001597;stroke-linecap:round;stroke-linejoin:round;stroke-miterlimit:4;stroke-dasharray:none" />
  <line
     x1="3.8977089"
     x2="26.47751"
     y1="9.3001766"
     y2="9.3001766"
     id="line20"
     style="fill:none;stroke:#000000;stroke-width:1.25001597;stroke-linecap:round;stroke-linejoin:round;stroke-miterlimit:4;stroke-dasharray:none" />
</svg>
