<?xml version="1.0" encoding="UTF-8" standalone="no"?>
<svg
   xmlns:dc="http://purl.org/dc/elements/1.1/"
   xmlns:cc="http://creativecommons.org/ns#"
   xmlns:rdf="http://www.w3.org/1999/02/22-rdf-syntax-ns#"
   xmlns:svg="http://www.w3.org/2000/svg"
   xmlns="http://www.w3.org/2000/svg"
   height="29.00005"
   width="29"
   version="1.1"
   viewBox="0 0 29 29.00005"
   data-name="Layer 1"
   id="Layer_1">
  <metadata
     id="metadata13">
    <rdf:RDF>
      <cc:Work
         rdf:about="">
        <dc:format>image/svg+xml</dc:format>
        <dc:type
           rdf:resource="http://purl.org/dc/dcmitype/StillImage" />
        <dc:title>PanelTypeIcons</dc:title>
      </cc:Work>
    </rdf:RDF>
  </metadata>
  <defs
     id="defs11" />
  <title
     id="title2">PanelTypeIcons</title>
  <path
     id="path4"
     style="fill:none;stroke:#FFFFFF;stroke-weight:1.5;stroke-linecap:round;stroke-linejoin:round"
     d="M 23.99,5.5 H 10.43 v 3.61 h 13.56 z m 0,10.84 h -5.43 v -3.65 h 5.43 z M 10.43,23.5 H 23.99 M 10.43,19.92 H 23.99 M 10.43,16.31 h 5.42 m -5.42,-3.62 h 5.42" />
  <path
     id="path6"
     style="fill:none;stroke:#FFFFFF;stroke-linecap:round;stroke-linejoin:round"
     d="M 3.21,28.5 H 24.89 A 3.61,3.61 0 0 0 28.5,24.89 V 1.4 A 0.9,0.9 0 0 0 27.6,0.5 H 6.82 a 0.9,0.9 0 0 0 -0.9,0.9 v 24.39 a 2.71,2.71 0 0 1 -5.42,0 V 9.05 h 2.26" />
</svg>
