<?xml version="1.0" encoding="UTF-8"?>
<svg width="219.32" height="219.32" version="1.1" viewBox="0 0 219.31999 219.32266" xml:space="preserve" xmlns="http://www.w3.org/2000/svg" xmlns:cc="http://creativecommons.org/ns#" xmlns:dc="http://purl.org/dc/elements/1.1/" xmlns:rdf="http://www.w3.org/1999/02/22-rdf-syntax-ns#"><metadata><rdf:RDF><cc:Work rdf:about=""><dc:format>image/svg+xml</dc:format><dc:type rdf:resource="http://purl.org/dc/dcmitype/StillImage"/><dc:title/></cc:Work></rdf:RDF></metadata><g transform="matrix(1.3333 0 0 -1.3333 -277.8 506.51)" fill="#a24997"><path d="m322.97 332.31c-5.041 0-10.082-1.918-13.918-5.755-7.674-7.674-7.674-20.161 0-27.834l13.917-13.918 13.918 13.918c7.673 7.673 7.673 20.16 0 27.834-3.836 3.837-8.878 5.755-13.917 5.755m-1e-3 -55.27c-0.853 0-1.671 0.34-2.274 0.941l-16.19 16.193c-10.181 10.18-10.181 26.746 0 36.928 4.932 4.932 11.489 7.648 18.465 7.648 6.975 0 13.531-2.716 18.463-7.648 10.181-10.182 10.181-26.748 0-36.928l-16.192-16.193c-0.602-0.602-1.419-0.941-2.272-0.941"/><path d="m290.97 245.03c-0.823 0-1.646 0.314-2.272 0.941-1.257 1.256-1.257 3.292 0 4.548l32 32.001c1.255 1.257 3.293 1.257 4.547 0l8.865-8.865c1.257-1.255 1.257-3.29 0-4.547-1.253-1.255-3.291-1.255-4.546 0l-6.592 6.593-29.729-29.73c-0.627-0.627-1.449-0.941-2.273-0.941"/><path d="m258.36 332.46c-5.041 0-10.08-1.919-13.918-5.756-7.672-7.674-7.672-20.159 0-27.834l13.918-13.918 13.917 13.918c7.674 7.675 7.674 20.16 0 27.834-3.836 3.837-8.877 5.756-13.917 5.756m0-55.27c-0.853 0-1.67 0.34-2.273 0.941l-16.191 16.192c-10.182 10.181-10.182 26.748 0 36.929 10.181 10.181 26.747 10.181 36.928 0s10.181-26.748 0-36.929l-16.191-16.192c-0.603-0.601-1.421-0.941-2.273-0.941"  fill="#a24997"   /><path d="m290.59 244.94c-0.822 0-1.646 0.313-2.273 0.942l-29.971 29.972-6.592-6.592c-1.254-1.256-3.292-1.256-4.546 0-1.257 1.255-1.257 3.291 0 4.546l8.865 8.866c1.205 1.207 3.34 1.207 4.546 0l32.245-32.246c1.255-1.254 1.255-3.291 0-4.546-0.628-0.629-1.451-0.942-2.274-0.942"  fill="#a24997" /><path d="m290.59 373.45c-41.804 0-75.815-34.01-75.815-75.814 0-41.805 34.011-75.815 75.815-75.815 41.805 0 75.815 34.01 75.815 75.815 0 41.804-34.01 75.814-75.815 75.814m0-158.06c-45.35 0-82.245 36.895-82.245 82.247 0 45.349 36.895 82.245 82.245 82.245s82.245-36.896 82.245-82.245c0-45.352-36.895-82.247-82.245-82.247"   fill="#a24997"  /></g></svg>
