<?xml version="1.0" encoding="UTF-8"?>
<svg width="29.007" height="29.014" data-name="Layer 1" version="1.1" viewBox="0 0 29.007372 29.014242" xmlns="http://www.w3.org/2000/svg" xmlns:cc="http://creativecommons.org/ns#" xmlns:dc="http://purl.org/dc/elements/1.1/" xmlns:rdf="http://www.w3.org/1999/02/22-rdf-syntax-ns#">
<metadata>
<rdf:RDF>
<cc:Work rdf:about="">
<dc:format>image/svg+xml</dc:format>
<dc:type rdf:resource="http://purl.org/dc/dcmitype/StillImage"/>
</cc:Work>
</rdf:RDF>
</metadata>
<title>PanelTypeIcons</title>
<path d="m23.5 2.3671h3.16a1.84 1.84 0 0 1 1.84 1.87v17.27l-6.77 7h-19.42a1.84 1.84 0 0 1 -1.81 -1.87v-22.4a1.84 1.84 0 0 1 1.81 -1.87h3.19m3.61 0h3.61m3.62 0h3.61" fill="none" stroke="#fff" stroke-linecap="round" stroke-linejoin="round"/>
<path d="m21.72 28.507v-5.16a1.84 1.84 0 0 1 1.78 -1.84h5" fill="none" stroke="#fff" stroke-linecap="round" stroke-linejoin="round"/>
<path d="m14.5 4.7171v-4.21m7.23 4.21v-4.21m-14.46 4.21v-4.21" fill="none" stroke="#fff" stroke-linecap="round" stroke-linejoin="round"/>
<path d="m8.1803 5.6171a0.9 0.9 0 1 1 -0.9 -0.9 0.9 0.9 0 0 1 0.9 0.9z" fill="none" stroke="#fff" stroke-linecap="round" stroke-linejoin="round"/>
<path d="m15.4 5.6171a0.9 0.9 0 1 1 -0.9 -0.9 0.9 0.9 0 0 1 0.9 0.9z" fill="none" stroke="#fff" stroke-linecap="round" stroke-linejoin="round"/>
<path d="m22.62 5.6171a0.9 0.9 0 0 1 -1.8 0 0.9 0.9 0 0 1 1.8 0z" fill="none" stroke="#fff" stroke-linecap="round" stroke-linejoin="round"/>
<path d="m14.05 20.107h2.71v4.67h-4.52v-3.74m-5.87-0.93h2.71v4.67h-4.52v-3.74m17.17-8.88h2.71v4.68h-4.52v-3.74m-5.87-0.94h2.71v4.68h-4.52v-3.74m-5.87-0.94h2.71v4.68h-4.52v-3.74" fill="none" stroke="#fff" stroke-linecap="round" stroke-linejoin="round"/>
<line x1="3.2102" x2="25.79" y1="8.9371" y2="8.9371" fill="none" stroke="#fff" stroke-linecap="round" stroke-linejoin="round"/>
</svg>
