<?xml version="1.0" encoding="UTF-8" standalone="no"?>
<svg
   xmlns:dc="http://purl.org/dc/elements/1.1/"
   xmlns:cc="http://creativecommons.org/ns#"
   xmlns:rdf="http://www.w3.org/1999/02/22-rdf-syntax-ns#"
   xmlns:svg="http://www.w3.org/2000/svg"
   xmlns="http://www.w3.org/2000/svg"
   width="24.5"
   height="29.93"
   data-name="Layer 1"
   version="1.1"
   viewBox="-0.1 0.4 24.500358 29.93005"
   id="svg14">
  <defs
     id="defs18" />
  <metadata
     id="metadata2">
    <rdf:RDF>
      <cc:Work
         rdf:about="">
        <dc:format>image/svg+xml</dc:format>
        <dc:type
           rdf:resource="http://purl.org/dc/dcmitype/StillImage" />
        <dc:title>PanelTypeIcons</dc:title>
      </cc:Work>
    </rdf:RDF>
  </metadata>
  <title
     id="title4">PanelTypeIcons</title>
  <line
     x1="12.246"
     x2="12.246"
     y1="24.450016"
     y2="28.980015"
     id="line6"
     style="fill:none;stroke:#000000;stroke-width:1.50002193;stroke-linecap:round;stroke-linejoin:round;stroke-miterlimit:4;stroke-dasharray:none" />
  <path
     d="m 2.5464,10.930014 h 1.22 v 4.5 a 8.5,8.5 0 1 0 17,0 v -4.52 h 1.18 m -9.7,10.39 v 0 a 5.85,5.85 0 0 1 -5.8,-5.87 v -8.13 a 5.8,5.8 0 1 1 11.6,0 v 8.13 a 5.85,5.85 0 0 1 -5.8,5.87 z m 1.79,-6.77 h 3.57 m -3.57,-3.16 h 3.57 m -3.57,-3.17 h 3.57 m -10.72,6.33 h 3.57 m -3.57,-3.16 h 3.57 m -3.57,-3.17 h 3.57 m -4.01,21.23 h 11.6"
     id="path8"
     style="fill:none;stroke:#000000;stroke-width:1.25001827;stroke-linecap:butt;stroke-linejoin:round;stroke-miterlimit:4;stroke-dasharray:none" />
  <path
     d="m 23.746,10.920014 a 0.9,0.9 0 1 1 -0.9,-0.9 0.9,0.9 0 0 1 0.9,0.9 z"
     id="path10"
     style="fill:none;stroke:#000000;stroke-linecap:round;stroke-linejoin:round" />
  <path
     d="m 2.5464,10.920014 a 0.9,0.9 0 1 1 -0.9,-0.9 0.9,0.9 0 0 1 0.9,0.9 z"
     id="path12"
     style="fill:none;stroke:#000000;stroke-width:1.00001466;stroke-linecap:round;stroke-linejoin:round;stroke-miterlimit:4;stroke-dasharray:none" />
</svg>
