<?xml version="1.0" encoding="UTF-8" standalone="no"?>
<svg
   xmlns:dc="http://purl.org/dc/elements/1.1/"
   xmlns:cc="http://creativecommons.org/ns#"
   xmlns:rdf="http://www.w3.org/1999/02/22-rdf-syntax-ns#"
   xmlns:svg="http://www.w3.org/2000/svg"
   xmlns="http://www.w3.org/2000/svg"
   id="svg20"
   xml:space="preserve"
   viewBox="-0.8 -0.6 39.120499 39.120499"
   version="1.1"
   height="1.005"
   width="1.005"><defs
     id="defs24" /><metadata
     id="metadata2"><rdf:RDF><cc:Work
         rdf:about=""><dc:format>image/svg+xml</dc:format><dc:type
           rdf:resource="http://purl.org/dc/dcmitype/StillImage" /><dc:title></dc:title></cc:Work></rdf:RDF></metadata><g
     id="g18"
     transform="matrix(1.3333,0,0,-1.3333,627.16,1720.5892)"><g
       id="g16"
       transform="translate(-397.58,-94.164)"><g
         id="g6"
         transform="translate(-60.115,1371.3)"><path
           style="fill:none;stroke:#000000;stroke-width:1.5;stroke-linecap:round;stroke-linejoin:round;stroke-miterlimit:10"
           id="path4"
           stroke-miterlimit="10"
           d="m 0,0 c 0,-3.041 -3.035,-5.647 -3.035,-5.647 v 3.041 c -1.676,0 -3.035,1.361 -3.035,3.04 0,1.68 1.359,3.041 3.035,3.041 C -1.359,3.475 0,2.172 0,0 Z" /></g><g
         id="g10"
         transform="translate(-51.395,1371.3)"><path
           style="fill:none;stroke:#000000;stroke-width:1.5;stroke-linecap:round;stroke-linejoin:round;stroke-miterlimit:10"
           id="path8"
           stroke-miterlimit="10"
           d="m 0,0 c 0,-3.041 -3.035,-5.647 -3.035,-5.647 v 3.041 c -1.676,0 -3.035,1.361 -3.035,3.04 0,1.68 1.359,3.041 3.035,3.041 C -1.301,3.475 0,2.172 0,0 Z" /></g><g
         id="g14"
         transform="translate(-70.477,1363.7)"><path
           style="fill:none;stroke:#000000;stroke-width:1.5;stroke-linecap:round;stroke-linejoin:round;stroke-miterlimit:10"
           id="path12"
           stroke-miterlimit="10"
           d="M 0,0 C -1.412,2.441 -2.096,5.355 -1.704,8.459 -0.925,14.637 4.099,19.543 10.295,20.163 18.843,21.018 25.971,13.892 25.117,5.344 24.498,-0.852 19.593,-5.877 13.415,-6.657 10.31,-7.05 7.395,-6.365 4.954,-4.953 l -6.767,-1.814 z" /></g></g></g></svg>