<?xml version="1.0" encoding="UTF-8"?>
<svg width="1" height="1" version="1.1" viewBox="0 0 37.332569 37.332634" xml:space="preserve" xmlns="http://www.w3.org/2000/svg" xmlns:cc="http://creativecommons.org/ns#" xmlns:dc="http://purl.org/dc/elements/1.1/" xmlns:rdf="http://www.w3.org/1999/02/22-rdf-syntax-ns#" xmlns:xlink="http://www.w3.org/1999/xlink"><metadata><rdf:RDF><cc:Work rdf:about=""><dc:format>image/svg+xml</dc:format><dc:type rdf:resource="http://purl.org/dc/dcmitype/StillImage"/><dc:title/></cc:Work></rdf:RDF></metadata><g transform="matrix(1.3333 0 0 -1.3333 627.16 1720.4)"><g transform="translate(-397.58 -94.164)"><g transform="translate(-60.115 1371.3)"><path d="m0 0c0-3.041-3.035-5.647-3.035-5.647v3.041c-1.676 0-3.035 1.361-3.035 3.04 0 1.68 1.359 3.041 3.035 3.041s3.035-1.303 3.035-3.475z" fill="none" stroke="#fff" stroke-linecap="round" stroke-linejoin="round" stroke-miterlimit="10" stroke-width="1.5"/></g><g transform="translate(-51.395 1371.3)"><path d="m0 0c0-3.041-3.035-5.647-3.035-5.647v3.041c-1.676 0-3.035 1.361-3.035 3.04 0 1.68 1.359 3.041 3.035 3.041 1.734 0 3.035-1.303 3.035-3.475z" fill="none" stroke="#fff" stroke-linecap="round" stroke-linejoin="round" stroke-miterlimit="10" stroke-width="1.5"/></g><g transform="translate(-70.477 1363.7)"><path d="m0 0c-1.412 2.441-2.096 5.355-1.704 8.459 0.779 6.178 5.803 11.084 11.999 11.704 8.548 0.855 15.676-6.271 14.822-14.819-0.619-6.196-5.524-11.221-11.702-12.001-3.105-0.393-6.02 0.292-8.461 1.704l-6.767-1.814z" fill="none" stroke="#fff" stroke-linecap="round" stroke-linejoin="round" stroke-miterlimit="10" stroke-width="1.5"/></g></g></g></svg>
