<?xml version="1.0" encoding="UTF-8"?>
<svg width="48" height="37.334" version="1.1" viewBox="0 0 48 37.333931" xml:space="preserve" xmlns="http://www.w3.org/2000/svg" xmlns:cc="http://creativecommons.org/ns#" xmlns:dc="http://purl.org/dc/elements/1.1/" xmlns:rdf="http://www.w3.org/1999/02/22-rdf-syntax-ns#" xmlns:xlink="http://www.w3.org/1999/xlink"><metadata><rdf:RDF><cc:Work rdf:about=""><dc:format>image/svg+xml</dc:format><dc:type rdf:resource="http://purl.org/dc/dcmitype/StillImage"/><dc:title/></cc:Work></rdf:RDF></metadata><g transform="matrix(1.3333 0 0 -1.3333 -2140.3 2346.3)"><g transform="translate(390)"><g transform="translate(1217.4 1755.9)"><path d="m0 0h-0.564c-0.623 0-1.128-0.504-1.128-1.125v-19.684c0-0.621 0.505-1.124 1.128-1.124h12.978c0.448 0 0.545-0.364 0.565-0.562 0.064-0.619 0.504-1.125 1.129-1.125h1.692m0.015 0h1.692c0.625 0 1.066 0.506 1.129 1.125 0.021 0.198 0.118 0.562 0.565 0.562h12.978c0.623 0 1.129 0.503 1.129 1.124v19.684c0 0.621-0.506 1.125-1.129 1.125h-0.564" fill="none" stroke="#000" stroke-linejoin="round" stroke-miterlimit="10" stroke-width="1.5"/></g><g transform="translate(1233.2 1735.6)"><path d="m0 0c1.693 2.345 14.113 1.688 14.113 1.688v21.933s-13.03 0.21-14.113-2.039c-1.083 2.249-14.113 2.039-14.113 2.039v-21.933s12.42 0.657 14.113-1.688zm-7e-3 21.582v-20.899" fill="none" stroke="#000" stroke-linecap="round" stroke-linejoin="round" stroke-miterlimit="10" stroke-width="1.5"/></g></g></g></svg>
