<?xml version="1.0" encoding="UTF-8" standalone="no"?>
<svg
   xmlns:dc="http://purl.org/dc/elements/1.1/"
   xmlns:cc="http://creativecommons.org/ns#"
   xmlns:rdf="http://www.w3.org/1999/02/22-rdf-syntax-ns#"
   xmlns:svg="http://www.w3.org/2000/svg"
   xmlns="http://www.w3.org/2000/svg"
   xmlns:sodipodi="http://sodipodi.sourceforge.net/DTD/sodipodi-0.dtd"
   xmlns:inkscape="http://www.inkscape.org/namespaces/inkscape"
   width="30"
   height="37"
   version="1.1"
   viewBox="0 0 30.003708 35.952031"
   xml:space="preserve"
   id="svg10"
   sodipodi:docname="thumbsup-white.svg"
   inkscape:version="0.92.2 5c3e80d, 2017-08-06"><defs
     id="defs14" /><sodipodi:namedview
     pagecolor="#ffffff"
     bordercolor="#666666"
     borderopacity="1"
     objecttolerance="10"
     gridtolerance="10"
     guidetolerance="10"
     inkscape:pageopacity="0"
     inkscape:pageshadow="2"
     inkscape:window-width="1738"
     inkscape:window-height="1044"
     id="namedview12"
     showgrid="false"
     inkscape:zoom="6.1033957"
     inkscape:cx="1.989998"
     inkscape:cy="19.370085"
     inkscape:window-x="143"
     inkscape:window-y="2"
     inkscape:window-maximized="0"
     inkscape:current-layer="svg10" /><metadata
     id="metadata2"><rdf:RDF><cc:Work
         rdf:about=""><dc:format>image/svg+xml</dc:format><dc:type
           rdf:resource="http://purl.org/dc/dcmitype/StillImage" /><dc:title /></cc:Work></rdf:RDF></metadata><g
     transform="matrix(1.2501545,0,0,-1.239736,247.46808,2264.4595)"
     id="g8"><g
       transform="translate(-177.44,1810)"
       id="g6"><path
         class="thumb"
         d="M 0,0 C 1.138,0 2.07,-0.929 2.07,-2.065 2.07,-3.202 1.138,-4.131 0,-4.131 h -1.61 m 0.69,0 c 1.138,0 2.07,-0.93 2.07,-2.066 0,-1.136 -0.932,-2.065 -2.07,-2.065 h -1.61 m 0.46,0 h 0.46 c 1.012,0 1.84,-0.826 1.84,-1.836 0,-1.01 -0.828,-1.836 -1.84,-1.836 h -10.259 c -0.515,0 -1.024,0.107 -1.495,0.316 l -2.712,1.203 c -0.471,0.209 -0.98,0.317 -1.495,0.317 H -20.01 V 0.918 h 1.33 c 0.334,0 0.661,0.091 0.947,0.262 l 1.445,0.865 c 0.274,0.164 0.5,0.396 0.657,0.674 l 3.901,6.92 c 0.92,1.836 0.46,5.509 0.46,5.509 0.46,0.918 1.38,0.918 1.38,0.918 4.397,0 2.542,-9.012 1.98,-11.373 -0.069,-0.288 0.152,-0.562 0.448,-0.562 H 0.92 C 2.059,4.131 2.99,3.202 2.99,2.066 2.99,0.93 2.059,0 0.92,0 h -1.61"
         stroke-miterlimit="10"
         id="path4"
         inkscape:connector-curvature="0"
         style="fill:none;stroke:#ffffff;stroke-linecap:round;stroke-linejoin:round;stroke-miterlimit:10" /></g></g></svg>